/* XPM */
static char * gg_xpm[] = {
"48 48 354 2",
"  	c None",
". 	c #000000",
"+ 	c #0F0E00",
"@ 	c #433E00",
"# 	c #8B7F01",
"$ 	c #978B01",
"% 	c #514A00",
"& 	c #D4C201",
"* 	c #F2DE01",
"= 	c #2B2700",
"- 	c #474100",
"; 	c #2F2B00",
"> 	c #060600",
", 	c #443E00",
"' 	c #B4A501",
") 	c #847901",
"! 	c #121000",
"~ 	c #282400",
"{ 	c #5C5500",
"] 	c #928601",
"^ 	c #DBC901",
"/ 	c #BFAF01",
"( 	c #756C00",
"_ 	c #393500",
": 	c #2E2A00",
"< 	c #5F5700",
"[ 	c #E1CE01",
"} 	c #322E00",
"| 	c #B6A601",
"1 	c #837801",
"2 	c #3C3800",
"3 	c #C0B001",
"4 	c #1C1900",
"5 	c #6A6100",
"6 	c #9E9101",
"7 	c #D8C601",
"8 	c #C1B101",
"9 	c #887D01",
"0 	c #3E3900",
"a 	c #1A1800",
"b 	c #8D8201",
"c 	c #DAC801",
"d 	c #EAD701",
"e 	c #7F7501",
"f 	c #1E1C00",
"g 	c #1F1D00",
"h 	c #544E00",
"i 	c #C7B801",
"j 	c #F3E001",
"k 	c #F3DF01",
"l 	c #F3DE01",
"m 	c #C6B601",
"n 	c #534C00",
"o 	c #090900",
"p 	c #6E6500",
"q 	c #C8B801",
"r 	c #C9B801",
"s 	c #A79901",
"t 	c #A89C00",
"u 	c #A99F00",
"v 	c #AAA200",
"w 	c #BEB600",
"x 	c #E8DD00",
"y 	c #F9E901",
"z 	c #F9E601",
"A 	c #F9E401",
"B 	c #F8E401",
"C 	c #F8E301",
"D 	c #F7E201",
"E 	c #F5E101",
"F 	c #E2D001",
"G 	c #B9AA01",
"H 	c #A69901",
"I 	c #262300",
"J 	c #C7B701",
"K 	c #E8D501",
"L 	c #F2DF01",
"M 	c #F4E300",
"N 	c #F6E700",
"O 	c #F8EC00",
"P 	c #FAF000",
"Q 	c #FBF200",
"R 	c #FCEF00",
"S 	c #FDE901",
"T 	c #FCE701",
"U 	c #FBE601",
"V 	c #FAE501",
"W 	c #221F00",
"X 	c #675E00",
"Y 	c #D1C001",
"Z 	c #F6E800",
"` 	c #F9ED00",
" .	c #FBF100",
"..	c #FDF300",
"+.	c #FDF000",
"@.	c #FDEA01",
"#.	c #FDE801",
"$.	c #F5E001",
"%.	c #2C2800",
"&.	c #7E7401",
"*.	c #EBD701",
"=.	c #BAAD00",
"-.	c #9A9100",
";.	c #9C9400",
">.	c #9D9700",
",.	c #9E9800",
"'.	c #9F9600",
").	c #9E9201",
"!.	c #9F9201",
"~.	c #9C8F01",
"{.	c #998C01",
"].	c #040400",
"^.	c #0D0C00",
"/.	c #645C00",
"(.	c #DFCD01",
"_.	c #8A7F01",
":.	c #100F00",
"<.	c #100E00",
"[.	c #2D2A00",
"}.	c #6F6600",
"|.	c #796F00",
"1.	c #79700A",
"2.	c #767349",
"3.	c #696969",
"4.	c #424242",
"5.	c #222222",
"6.	c #090909",
"7.	c #746A00",
"8.	c #0F0F0F",
"9.	c #4E4E4E",
"0.	c #666666",
"a.	c #3F3F3F",
"b.	c #202020",
"c.	c #080808",
"d.	c #706700",
"e.	c #151512",
"f.	c #8A8A89",
"g.	c #C5C5C5",
"h.	c #7C7C7C",
"i.	c #404040",
"j.	c #121212",
"k.	c #010000",
"l.	c #010100",
"m.	c #665D00",
"n.	c #655C00",
"o.	c #1B1B1B",
"p.	c #929292",
"q.	c #BFBFBF",
"r.	c #777777",
"s.	c #3C3C3C",
"t.	c #0E0E0E",
"u.	c #F2DE00",
"v.	c #7D7400",
"w.	c #202007",
"x.	c #414137",
"y.	c #4F4F4F",
"z.	c #323232",
"A.	c #1A1A1A",
"B.	c #070707",
"C.	c #050500",
"D.	c #0E0C00",
"E.	c #E9D601",
"F.	c #0B0B0B",
"G.	c #3A3A3A",
"H.	c #4D4D4D",
"I.	c #303030",
"J.	c #181818",
"K.	c #060606",
"L.	c #111000",
"M.	c #2A2600",
"N.	c #887D00",
"O.	c #F4E000",
"P.	c #9C9300",
"Q.	c #4B4A00",
"R.	c #1F1E00",
"S.	c #020100",
"T.	c #090800",
"U.	c #1D1A00",
"V.	c #3C3700",
"W.	c #8D8101",
"X.	c #EDD901",
"Y.	c #EAD601",
"Z.	c #877C01",
"`.	c #D5C400",
" +	c #FAE800",
".+	c #DFD300",
"++	c #B7B200",
"@+	c #4B4900",
"#+	c #1A1700",
"$+	c #242100",
"%+	c #595200",
"&+	c #B0A101",
"*+	c #D9C701",
"=+	c #F4E001",
"-+	c #EFDC01",
";+	c #CFBE01",
">+	c #4C4500",
",+	c #E6D301",
"'+	c #F8E501",
")+	c #FDEB00",
"!+	c #FDEE00",
"~+	c #EEE300",
"{+	c #908800",
"]+	c #554E00",
"^+	c #716700",
"/+	c #F6E201",
"(+	c #DDCB01",
"_+	c #E4D101",
":+	c #0A0900",
"<+	c #827801",
"[+	c #E1CF01",
"}+	c #FFEA01",
"|+	c #FEEA01",
"1+	c #FBE801",
"2+	c #E3D001",
"3+	c #E5D201",
"4+	c #E9D501",
"5+	c #F1DD01",
"6+	c #EEDB01",
"7+	c #DECC01",
"8+	c #FAE601",
"9+	c #FEE901",
"0+	c #FEE801",
"a+	c #FDE701",
"b+	c #FBE401",
"c+	c #F9E001",
"d+	c #F6DC01",
"e+	c #F2D901",
"f+	c #F2D801",
"g+	c #F2DA01",
"h+	c #F2DC01",
"i+	c #F2DD01",
"j+	c #FAE301",
"k+	c #F7DC01",
"l+	c #F3D502",
"m+	c #F1D202",
"n+	c #F1D102",
"o+	c #F1D502",
"p+	c #F1DA01",
"q+	c #F9E301",
"r+	c #F4D702",
"s+	c #F2D302",
"t+	c #F1D302",
"u+	c #F1D901",
"v+	c #F4DA01",
"w+	c #EEC402",
"x+	c #ECBF02",
"y+	c #F0CC02",
"z+	c #ECBD02",
"A+	c #EDBF02",
"B+	c #F0CD02",
"C+	c #F1D602",
"D+	c #F7DE01",
"E+	c #DA6E01",
"F+	c #D86601",
"G+	c #E9B301",
"H+	c #EAB302",
"I+	c #D86501",
"J+	c #D96C01",
"K+	c #EBBA02",
"L+	c #766C00",
"M+	c #D5C401",
"N+	c #EDB901",
"O+	c #DF8401",
"P+	c #CB2E00",
"Q+	c #C92700",
"R+	c #DC7C01",
"S+	c #E8AE01",
"T+	c #EFCA02",
"U+	c #E9AE02",
"V+	c #DD7C01",
"W+	c #E9B401",
"X+	c #F0D401",
"Y+	c #F1DB01",
"Z+	c #282500",
"`+	c #897D01",
" @	c #F4DF01",
".@	c #F0CF01",
"+@	c #C82100",
"@@	c #C30C00",
"#@	c #C20A00",
"$@	c #C71F00",
"%@	c #D66001",
"&@	c #ECBC02",
"*@	c #D86901",
"=@	c #EEC901",
"-@	c #EECD01",
";@	c #DE8201",
">@	c #D24E01",
",@	c #D24B01",
"'@	c #CD3700",
")@	c #C40F00",
"!@	c #CA2C00",
"~@	c #DB7201",
"{@	c #DF8301",
"]@	c #CD3701",
"^@	c #D24E00",
"/@	c #DE8301",
"(@	c #EFCE01",
"_@	c #F1D802",
":@	c #EDC202",
"<@	c #ECBC01",
"[@	c #E08B01",
"}@	c #C92600",
"|@	c #C10400",
"1@	c #C30B00",
"2@	c #C30D00",
"3@	c #C92601",
"4@	c #E08A02",
"5@	c #EDC401",
"6@	c #EFCF01",
"7@	c #B0A201",
"8@	c #F1D002",
"9@	c #EAB201",
"0@	c #DD7D01",
"a@	c #DB4B06",
"b@	c #DF1A0D",
"c@	c #D20909",
"d@	c #C10101",
"e@	c #C00000",
"f@	c #E9B202",
"g@	c #F1D301",
"h@	c #F1D801",
"i@	c #F5990B",
"j@	c #FC3E19",
"k@	c #E51D11",
"l@	c #C50E01",
"m@	c #C60E01",
"n@	c #E61D11",
"o@	c #F0D101",
"p@	c #F0D201",
"q@	c #F1D501",
"r@	c #F1DA02",
"s@	c #EFCB02",
"t@	c #F0CF02",
"u@	c #F3BB06",
"v@	c #F6960B",
"w@	c #EC8908",
"x@	c #DF8201",
"y@	c #E08302",
"z@	c #F3BB05",
"A@	c #F1D201",
"B@	c #F2DB01",
"C@	c #F1D902",
"D@	c #EFCB01",
"E@	c #F0D001",
"F@	c #F1D401",
"G@	c #F1D601",
"H@	c #F1D702",
"I@	c #F1D701",
"J@	c #F2DA02",
"K@	c #E2CF01",
"L@	c #C6B501",
"M@	c #F1DC01",
"                                          . . . . . . .                                         ",
"                                          + + + + + + +                                         ",
"                                        @ # $ $ $ $ $ # @                                       ",
"                                      . % & * * * * * & % .                                     ",
"                . . .                 . % & * * * * * & % .                 . . .               ",
"              = - ; > .               . % & * * * * * & % .               . > ; - =             ",
"            . , ' ) ! . .             . % & * * * * * & % .             . . ! ) ' , .           ",
"          ~ { ] ^ / ( _ . .         : < $ [ * * * * * [ $ < :         . . _ ( / ^ ] { ~         ",
"        . } | * * * * 1 . . .     . 2 3 * * * * * * * * * 3 2 .     . . . 1 * * * * | } .       ",
"      4 5 6 7 * * * * 8 9 0 . . . . 2 3 * * * * * * * * * 3 2 . . . . 0 9 8 * * * * 7 6 5 4     ",
"    . a b c d * * * * * * e f f g g h i j k k k k k l * * m n f f f f e * * * * * * d c b a .   ",
"    . o } p q * * * * * * r s t u v w x y z A B C D E k * F G H H H H r * * * * * * q p } o .   ",
"      . . I 9 J K * * * * * L M N O P Q R S T T U V C E k * * * * * * * * * * * K J 9 I . .     ",
"        . o W X Y * * * * * L M Z `  ...+.@.#.#.#.#.U A $.* * * * * * * * * * * Y X W o .       ",
"          . . %.&.G d q $ q *.=.-.;.>.,.'.).6 !.!.!.6 ~.{.$ $ $ $ G d q $ q d G &.%.. .         ",
"            . ].^./.(._.+ _.(./.+ :.:.:.:.:.:.:.:.:.<.<.+ + + + + /.(._.+ _.(./.^.]..           ",
"              . . [.}.|.|.|.1.2.3.4.5.6.. . } 7.|.7.} 8.9.0.a.b.c.[.}.|.|.|.}.[.. .             ",
"                . . . }.* d.e.f.g.h.i.j.k.l.m.K * K n.o.p.q.r.s.t.. . }.* }.. . .               ",
"                . . . }.u.v.w.x.y.z.A.B.C.D.p E.* K n.F.G.H.I.J.K.. . }.* }.. . .               ",
"                . L.M.N.O.P.Q.R.S.> T.T.U.V.W.X.k Y.e ~ + . . . . L.M.Z.* Z.M.L..               ",
"      . . . . . . , H `. +.+++@+> #+$+$+%+&+*+E =+-+;+!.2 . . . . , H Y * Y H , . . . . . .     ",
"    0 >+>+>+>+>+>+# ,+'+)+!+~+{+]+X ^+d.6 K B /+=+* * (+1 >+>+>+>+_._+* * * _+_.>+>+>+>+>+>+0   ",
". :+<+& & & & & & [+=+U }+|+1+d (.2+3+_+4+5+k k * * * 6+7+& & & & (.-+* * * -+(.& & & & & & <+:+",
". :+b * * * * * * E 8+#.}+}+9+9+0+a+b+c+d+e+e+e+e+e+f+f+f+f+e+g+h+i+* * * * * * * * * * * * b :+",
". :+b * * * * * * /+#.9+}+}+}+9+#.j+k+l+m+m+m+m+m+m+n+n+n+n+m+o+p+5+* * * * * * * * * * * * b :+",
". :+b * * * * * * =+C U 9+}+}+T q+d+r+s+n+n+n+n+n+n+n+n+n+n+n+t+o+u+i+* * * * * * * * * * * b :+",
". :+b * * * * * * k =+B 9+9+9+A v+w+x+y+n+n+n+n+n+n+n+n+n+y+z+A+B+C+h+* * * * * * * * * * * b :+",
". :+b * * * * * * * k C 9+9+#.D+A+E+F+G+n+n+n+n+n+n+n+n+n+H+I+J+K+o+p+h+* * * * * * * * * * b :+",
". :+L+| | | | | | | | M+U U c+N+O+P+Q+R+S+T+n+n+n+n+n+T+U+V+Q+P+O+W+X+Y+* Y | | | | | | | | L+:+",
"    Z+[.[.[.[.[.[.[.[.`+=+ @.@J++@@@#@$@%@&@n+n+n+n+n+&@%@$@#@@@+@*@=@p+* Z.[.[.[.[.[.[.[.[.Z+  ",
"      . . . . . . . . }.* Y+-@;@>@,@'@)@!@~@{@{@{@{@{@~@!@)@]@,@^@/@(@h+* }.. . . . . . . .     ",
"                . . . }.* _@m+T+:@<@[@}@|@1@2@2@2@2@2@1@|@3@4@&@5@6@h+* * }.. . .               ",
"              . . [.}.7@* _@t+m+8@B+9@0@a@b@c@d@e@d@c@b@a@0@f@B+g@h@i+* * 7@}.[.. .             ",
"            . ].^./.(.* * _@t+m+n+8@8@n+i@j@k@l@2@m@n@j@i@n+o@p@q@u+i+* * * (./.^.]..           ",
"          . . %.&.G d * * r@C+t+8@s@T+t@u@v@w@x@;@y@w@v@z@A@g@q@h@B@* * * * d G &.%.. .         ",
"        . o W X Y * * * * B@C@C+m+D@D@n+t+t+m+E@n+m+n+n+F@q@G@h@g+h+* * * * * * Y X W o .       ",
"      . . I 9 J K * * * * i+h+B@g+h@h@g+B@B@H@m+t+F@m+m+I@Y+B@h+i+i+* * * * * * K J 9 I . .     ",
"    . o } p q * * * * * * r H H H H G F * * J@o+C+I@G@C+Y+K@G H H H H r * * * * * * q p } o .   ",
"    . a b c d * * * * * * e f f f f n m * * h+u+p+Y+h+i+i+L@n f f f f e * * * * * * d c b a .   ",
"      4 5 6 7 * * * * 8 9 0 . . . . 2 3 * * i+M@M@5+* * * 3 2 . . . . 0 9 8 * * * * 7 6 5 4     ",
"        . } | * * * * 1 . . .     . 2 3 * * * * * * * * * 3 2 .     . . . 1 * * * * | } .       ",
"          ~ { ] ^ / ( _ . .         : < $ [ * * * * * [ $ < :         . . _ ( / ^ ] { ~         ",
"            . , ' ) ! . .             . % & * * * * * & % .             . . ! ) ' , .           ",
"              = - ; > .               . % & * * * * * & % .               . > ; - =             ",
"                . . .                 . % & * * * * * & % .                 . . .               ",
"                                      . % & * * * * * & % .                                     ",
"                                        @ # $ $ $ $ $ # @                                       ",
"                                          + + + + + + +                                         "};
