/* XPM */
static char * gg_act_xpm[] = {
"16 16 6 1",
" 	c None",
".	c #7F7F7F",
"+	c #000000",
"@	c #FF0000",
"#	c #FFFF00",
"$	c #FFFFFF",
"       @        ",
"       @.       ",
"  @    @.   @   ",
"   @ @@#@@ @.   ",
"    @#####@.    ",
"   @##+#+##@.   ",
"   @#######@.   ",
"@@@#########@@@ ",
"   @#+###+#@....",
"   @##+++##@.   ",
"    @#####@.    ",
"   @.@@#@@ @.   ",
"  @.   @..  @.  ",
"  .    @.       ",
"       @.       ",
"        .       "};

